<svg height="50px" version="1.1" viewBox="0 0 479.29 250" xml:space="preserve" xmlns="http://www.w3.org/2000/svg" xmlns:cc="http://creativecommons.org/ns#" xmlns:dc="http://purl.org/dc/elements/1.1/" xmlns:rdf="http://www.w3.org/1999/02/22-rdf-syntax-ns#"><metadata><rdf:rdf><cc:work rdf:about=""><dc:format>image/svg+xml</dc:format><dc:type rdf:resource="http://purl.org/dc/dcmitype/StillImage"></dc:type></cc:work></rdf:rdf></metadata><defs><clipPath id="clipPath18"><path d="M 0,249.167 H 359.471 V 0 H 0 Z"></path></clipPath></defs><g transform="matrix(1.3333 0 0 -1.3333 0 332.22)"><g clip-path="url(#clipPath18)"><g transform="translate(140.84 84.116)"><path d="m0 0 20.543 50.671h12.09c10.284 0.409 6.401-7.023 4.981-10.061l-27.42-63.58h-21.717l-29.389 73.641h22.076z" fill="#d3373b"></path></g><g transform="translate(216.88 61.192)"><path d="m0 0c-7.428 0-13.306 0.753-17.646 2.24-4.342 1.507-8.202 4.156-11.584 7.93-6.309 7.058-9.466 15.976-9.466 26.831 0 13.098 3.776 22.9 11.384 29.393 2.991 2.606 6.625 4.455 10.855 5.575 4.231 1.123 9.738 1.669 16.457 1.669h21.918c5.051-0.208 5.668-3.224 5.783-5.096l-0.022-0.048v-10.631h-24.295c-8.071 0-13.712-1.8-16.919-5.458-2.988-3.452-4.497-8.663-4.497-15.656 0-7.909 2.468-13.666 7.381-17.208 2.012-1.465 4.206-2.467 6.586-3.02 2.372-0.522 5.663-0.792 9.915-0.792h21.851v-15.729z" fill="#d3373b"></path></g><g transform="translate(252.3 134.8)"><path d="m0 0 0.025-0.017h39.699c5.826 0 10.259-0.437 13.367-1.261 3.114-0.824 5.897-2.398 8.349-4.641 5.163-4.706 7.765-12.155 7.765-22.398l-0.05-40.631c-0.019-2.674-1.577-4.802-5.942-4.71h-14.275v47.651c0 3.632-0.808 6.261-2.452 7.866-1.621 1.598-4.269 2.392-7.976 2.392h-18.3l-0.028-53.199c-0.026-2.674-1.576-4.802-5.943-4.71h-14.285z" fill="#d3373b"></path></g><g transform="translate(115.43 179.77)"><path d="m0 0c-0.226-0.624-0.325-1.336-0.252-2.09l0.275 2.028c0 0.019-0.023 0.043-0.023 0.062m1.474 2.19c0.203-1.539 0.663-3.041 1.354-4.375 0.369 1.471 0.775 2.949 1.24 4.398-0.418 0.322-0.826 0.668-1.199 1.008-0.504-0.295-0.982-0.637-1.395-1.031m-0.145 2.78c-0.019-0.686 0-1.354 0.046-2.044 0.302 0.295 0.624 0.575 0.944 0.826-0.347 0.39-0.689 0.785-0.99 1.218m24.766-4.277c0.205 0.163 0.385 0.343 0.574 0.529 0.821 0.781 1.265 1.635 1.402 2.53-0.507-0.85-1.219-1.609-2.131-2.276 0.043-0.254 0.086-0.507 0.132-0.783zm-16.286 11.137c-1.191-0.179-2.318-0.434-3.289-0.781-1.006-0.366-0.16-1.608 0.442-2.35 0.693 1.113 1.467 2.053 2.342 2.791 0.162 0.138 0.322 0.249 0.483 0.34zm11.256 0.527c-0.254 0-0.579 0-0.898 0.032 0.441-0.165 0.875-0.348 1.308-0.53-0.134 0.159-0.248 0.339-0.387 0.498zm5.399-20.042c2.552 2.511 4.842 5.292 6.8 8.104 1.375 1.954 3.144 5.89 1.559 8.28-1.216 1.873-3.832 2.769-6.523 3.203 0.019-0.043 0.019-0.092 0.045-0.115 1.384-1.867 2.419-3.911 2.826-5.913 0.578-2.74-0.712-6.194-3.01-7.877-0.527-0.39-1.078-0.779-1.63-1.15 0.094-1.493 0.07-3.015-0.091-4.512zm-18.512 4.095-0.461-2.162c4.25-0.163 8.658 0.71 12.608 2.527-0.066 0.743-0.324 1.477-0.688 2.193-1.174-0.206-2.388-0.304-3.606-0.325zm11.641 9.117c-1.356 1.334-3.305 1.772-5.718 2.142l-1.265 0.064-0.139-0.023-0.806-1.998c2.535-0.762 5.425-0.762 7.928-0.185m2.62-7.638c-0.07 0.569-0.159 1.122-0.254 1.676-0.505-0.161-1.03-0.302-1.561-0.416 0.28-0.594 0.506-1.26 0.644-1.908 0.412 0.206 0.802 0.413 1.194 0.648zm-15.043-13.881c0.758-0.323 1.536-0.623 2.337-0.899 0.37 0 0.737 0.02 1.11 0.088 3.95 0.811 7.599 2.583 10.89 4.928 0.636 2.002 0.913 4.095 0.913 6.192-0.625-0.347-1.266-0.669-1.905-0.966-0.207-0.344-0.461-0.693-0.782-1.016-2.066-2.023-5.533-2.297-8.686-1.796-1.442-0.184-2.936-0.252-4.429-0.184l-0.346-1.63 0.044-2.512c0-0.966 0.321-1.696 0.854-2.205m-13.508 10.473c2.043-2.628 4.433-4.95 7.122-6.86 0.023 0.53 0.088 1.058 0.203 1.587 0.109 0.598 0.254 1.221 0.388 1.885-2.73 0.65-5.375 1.817-7.691 3.388zm5.762 17.948c-2.157-0.321-4.291-0.847-6.361-1.702-1.542-0.619-2.617-1.706-3.287-3.038 0.047-0.828 0.187-1.634 0.412-2.394 1.403-4.531 5.219-7.688 9.56-9.436-0.526 1.635-0.576 3.385 0.047 4.811-0.573 2.44-0.623 5.085-0.16 7.598-0.413 1.381-0.556 2.801-0.258 4.161zm23.409-2.78c-1.038 0.506-2.184 0.923-3.329 1.219 1.513-0.669 2.732-1.502 3.715-2.697 0 0.418-0.088 0.85-0.293 1.27-0.028 0.067-0.072 0.136-0.093 0.18zm-14.562-12.313 4.758 1.494c-1.314 0.16-2.601 0.414-3.821 0.802zm-7.79 1.28-0.23-2.112c0.068-0.808 1.31-1.084 1.978-1.054-0.71 0.96-1.307 2.02-1.748 3.166m1.909 18.257-0.025-0.138c1.329 0.945 2.985 1.589 4.573 1.843 1.053 0.504 2.205 0.872 3.356 1.106-0.946 0.39-1.865 0.758-2.739 1.078-2.756 0.995-6.748 1.978-9.712 0.807-3.728-1.495-6.619-5.549-7.676-9.782 2.849 1.978 6.85 2.763 10.199 2.972 0.301 0.435 0.643 0.853 1.06 1.24 0.269 0.275 0.595 0.527 0.915 0.758l0.024 0.14zm15.16-37.744 21.681 0.111 1.981 0.115c6.571 2.489 12.91 5.708 19.017 9.046l-18.236 16.207c-0.094-0.605-0.254-1.175-0.438-1.727-3.124-8.953-10.496-15.743-18.352-20.695-0.576-0.369-1.197-0.735-1.834-1.104-1.015-0.827-2.212-1.475-3.593-1.91-0.068-0.021-0.134-0.043-0.206-0.072zm-31.935 2.688c6.504-1.404 12.916-2.254 18.701-2.688-1.334 1.007-2.295 2.437-2.89 4.023-1.774 1.198-3.403 2.49-4.827 3.753-4.269 3.802-9.279 9.531-10.083 15.651-1.658 3.526-2.066 7.599-0.577 11.878 1.056 3.04 2.944 6.22 5.402 8.63-14.288-1.127-28.331-4.443-41.876-9.134l-2.365-1.015 27.517-24.677c3.402-2.414 7.1-4.575 10.976-6.394zm83.116-0.735c-0.341 0.208-0.666 0.437-1.006 0.667l-5.518 4.906c-3.654-2.305-7.419-4.583-11.304-6.675l17.828 1.125zm-0.987 9.273-0.943-0.781c-1.289-0.827-2.593-1.655-3.91-2.505 2.098-2.141 4.3-4.168 6.67-5.945l8.656 0.561-10.492 8.67zm-22.698 18.76c5.469-6.531 10.382-13.855 16.129-20.184 1.518 0.85 3.033 1.678 4.499 2.531l0.369 0.281-21.02 17.352zm-103.1 8.427 2.573-2.303c14.247 7.755 31.472 15.03 50.31 15.444-7.032 0.463-14.039-0.235-20.72-2.394-9.286-3.015-21.134-6.376-32.163-10.747m-12.91 11.579 11.74-10.523c17.345 7.389 39.44 11.394 53.082 12.613 19.487 1.727 34.299-3.566 49.714-16.341l23.961-22.001 27.934 20.528 0.019-0.019-26.46-21.893 10.544-9.692 0.575 0.051 0.182 0.042v0.028c0.092 0 0.065-0.049 0-0.07l-0.689-0.117 12.38-11.37-0.023-0.046-13.578 11.235-7.53-1.251c0.598-0.292 1.215-0.524 1.888-0.688v-0.044c-0.833 0.12-1.616 0.347-2.346 0.67l-17.437-2.881-9.237-0.945c-8.936-4.165-18.356-7.085-28.16-7.224-11.005-0.162-22.402 3.406-32.298 8.957-16.909 5.336-34.323 15.122-40.886 31.761 5.252-12.035 16.895-19.614 29.922-24.288l-26.596 26.727-23.134-10.011c5.793 3.426 12.817 7.937 20.817 12.36l-2.485 2.505c-6.616-2.668-12.885-5.704-18.056-9.223 4.39 3.957 10.319 7.39 16.998 10.304l-10.841 10.912z" fill="#464547"></path></g></g></g></svg>